# xmcd
#
# Track frame offsets:
#	150
#	12774
#	27204
#	42133
#	55829
#	72446
#	87924
#	104062
#	123253
#	139175
#	156917
#
# Disc length: 2306 seconds
#
# Revision: 0
# Processed by: cddbd v1.5.1PL0 Copyright (c) Steve Scherf et al.
# Submitted via: dBpowerAMP V4.0
#
DISCID=9009000b
DTITLE=Allie Danielle - Allie Danielle
DYEAR=2004
DGENRE=Country
TTITLE0=The Next Big Thing
TTITLE1=I Gotta Know
TTITLE2=Stay In This Moment
TTITLE3=No
TTITLE4=A Little At A Time
TTITLE5=If I Want To
TTITLE6=Passion
TTITLE7=Inexpressible
TTITLE8=Reach Me
TTITLE9=How Your Love Gets To Me
TTITLE10=The Best Of Me
EXTD=
EXTT0=
EXTT1=
EXTT2=
EXTT3=
EXTT4=
EXTT5=
EXTT6=
EXTT7=
EXTT8=
EXTT9=
EXTT10=
PLAYORDER=
